<?xml version="1.0" standalone="no"?>
<!DOCTYPE svg PUBLIC "-//W3C//DTD SVG 20010904//EN"
 "http://www.w3.org/TR/2001/REC-SVG-20010904/DTD/svg10.dtd">
<svg version="1.0" xmlns="http://www.w3.org/2000/svg"
 width="16.000000pt" height="16.000000pt" viewBox="0 0 16.000000 16.000000"
 preserveAspectRatio="xMidYMid meet">

<g transform="translate(0.000000,16.000000) scale(0.100000,-0.100000)"
fill="#000000" stroke="none">
<path d="M0 140 c0 -5 9 -10 20 -10 18 0 20 -7 20 -60 0 -33 4 -60 10 -60 6 0
10 27 10 60 0 53 2 60 20 60 11 0 20 5 20 10 0 6 -22 10 -50 10 -27 0 -50 -4
-50 -10z"/>
<path d="M92 98 c-15 -15 -15 -61 0 -76 14 -14 68 -16 68 -2 0 6 -13 10 -30
10 -16 0 -30 5 -30 10 0 6 14 10 30 10 17 0 30 5 30 10 0 6 -13 10 -30 10 -16
0 -30 5 -30 10 0 6 14 10 30 10 17 0 30 5 30 10 0 14 -54 12 -68 -2z"/>
</g>
</svg>
